<?xml version="1.0" encoding="utf-8"?>
<!-- Generator: Adobe Illustrator 15.0.2, SVG Export Plug-In  -->
<!DOCTYPE svg PUBLIC "-//W3C//DTD SVG 1.0//EN" "http://www.w3.org/TR/2001/REC-SVG-20010904/DTD/svg10.dtd" [
	<!ENTITY ns_flows "http://ns.adobe.com/Flows/1.0/">
]>
<svg version="1.0"
	 xmlns="http://www.w3.org/2000/svg" xmlns:xlink="http://www.w3.org/1999/xlink" xmlns:a="http://ns.adobe.com/AdobeSVGViewerExtensions/3.0/"
	 x="0px" y="0px" width="32px" height="32px" viewBox="-3.229 -6.198 32 32"
	 overflow="visible" enable-background="new -3.229 -6.198 32 32" xml:space="preserve">
<defs>
</defs>
<path fill="#2CAAE1" d="M25.542,2.457c-0.939,0.417-1.949,0.699-3.01,0.825c1.082-0.648,1.913-1.675,2.304-2.899
	c-1.012,0.601-2.134,1.037-3.328,1.271C20.553,0.636,19.19,0,17.684,0c-2.895,0-5.24,2.346-5.24,5.24
	c0,0.411,0.046,0.811,0.136,1.194C8.224,6.216,4.362,4.13,1.778,0.959c-0.451,0.774-0.71,1.674-0.71,2.635
	c0,1.818,0.925,3.422,2.331,4.361C2.541,7.928,1.732,7.692,1.025,7.3c0,0.022,0,0.044,0,0.066c0,2.539,1.807,4.656,4.204,5.139
	c-0.44,0.119-0.903,0.184-1.381,0.184c-0.338,0-0.666-0.033-0.986-0.094c0.667,2.082,2.603,3.598,4.896,3.639
	c-1.793,1.406-4.054,2.244-6.508,2.244c-0.424,0-0.841-0.025-1.25-0.074c2.318,1.488,5.073,2.355,8.032,2.355
	c9.639,0,14.91-7.986,14.91-14.911c0-0.227-0.006-0.453-0.016-0.678C23.951,4.431,24.84,3.508,25.542,2.457z"/>
</svg>
