<?xml version="1.0" encoding="utf-8"?>
<!-- Generator: Adobe Illustrator 15.0.2, SVG Export Plug-In  -->
<!DOCTYPE svg PUBLIC "-//W3C//DTD SVG 1.0//EN" "http://www.w3.org/TR/2001/REC-SVG-20010904/DTD/svg10.dtd" [
	<!ENTITY ns_flows "http://ns.adobe.com/Flows/1.0/">
]>
<svg version="1.0"
	 xmlns="http://www.w3.org/2000/svg" xmlns:xlink="http://www.w3.org/1999/xlink" xmlns:a="http://ns.adobe.com/AdobeSVGViewerExtensions/3.0/"
	 x="0px" y="0px" width="32px" height="32px" viewBox="-0.098 -0.046 32 32"
	 overflow="visible" enable-background="new -0.098 -0.046 32 32" xml:space="preserve">
<defs>
</defs>
<path display="none" fill="#2CAAE1" d="M28.674,8.608c-0.939,0.417-1.949,0.699-3.01,0.825c1.082-0.648,1.913-1.675,2.304-2.899
	c-1.012,0.601-2.134,1.037-3.328,1.271c-0.955-1.019-2.317-1.655-3.824-1.655c-2.895,0-5.24,2.346-5.24,5.24
	c0,0.411,0.046,0.811,0.136,1.194C11.355,12.367,7.494,10.281,4.91,7.11C4.459,7.884,4.2,8.785,4.2,9.745
	c0,1.818,0.925,3.422,2.331,4.361c-0.858-0.027-1.667-0.263-2.374-0.655c0,0.022,0,0.044,0,0.066c0,2.539,1.807,4.656,4.204,5.139
	c-0.44,0.119-0.903,0.184-1.381,0.184c-0.338,0-0.666-0.033-0.986-0.094c0.667,2.082,2.603,3.598,4.896,3.639
	c-1.793,1.406-4.054,2.244-6.508,2.244c-0.424,0-0.841-0.025-1.25-0.074c2.318,1.488,5.073,2.355,8.032,2.355
	c9.639,0,14.91-7.986,14.91-14.911c0-0.227-0.006-0.453-0.016-0.678C27.083,10.583,27.972,9.66,28.674,8.608z"/>
<path fill="#3D5B99" d="M31.856,30.036c0,1-0.82,1.82-1.82,1.82H1.82c-1,0-1.82-0.82-1.82-1.82V1.82C0,0.819,0.82,0,1.82,0h28.216
	c1,0,1.82,0.819,1.82,1.82V30.036z"/>
<rect x="2.276" y="25.031" fill="#6E85B4" width="27.306" height="4.55"/>
<path fill="#FFFFFF" d="M18.204,29.581V17.869h-3.097v-4.216h3.097c0,0,0-1.729,0-3.602c0-2.831,1.829-5.43,6.045-5.43
	c1.705,0,2.969,0.164,2.969,0.164l-0.101,3.938c0,0-1.287-0.013-2.69-0.013c-1.521,0-1.766,0.701-1.766,1.863
	c0,0.919,0-1.958,0,3.08h4.577l-0.199,4.216h-4.378v11.712H18.204z"/>
</svg>
