<?xml version="1.0" encoding="utf-8"?>
<!-- Generator: Adobe Illustrator 15.0.2, SVG Export Plug-In  -->
<!DOCTYPE svg PUBLIC "-//W3C//DTD SVG 1.0//EN" "http://www.w3.org/TR/2001/REC-SVG-20010904/DTD/svg10.dtd" [
	<!ENTITY ns_flows "http://ns.adobe.com/Flows/1.0/">
]>
<svg version="1.0"
	 xmlns="http://www.w3.org/2000/svg" xmlns:xlink="http://www.w3.org/1999/xlink" xmlns:a="http://ns.adobe.com/AdobeSVGViewerExtensions/3.0/"
	 x="0px" y="0px" width="32px" height="32px" viewBox="0 0 32 32" overflow="visible" enable-background="new 0 0 32 32"
	 xml:space="preserve">
<defs>
</defs>
<linearGradient id="SVGID_1_" gradientUnits="userSpaceOnUse" x1="15.9995" y1="0.2905" x2="15.9995" y2="31.5657">
	<stop  offset="0" style="stop-color:#EEF3F6"/>
	<stop  offset="0.77" style="stop-color:#D3DBE1"/>
	<stop  offset="1" style="stop-color:#D5DEE3"/>
</linearGradient>
<path fill="url(#SVGID_1_)" d="M5.334,31.875c-2.872,0-5.209-2.337-5.209-5.209V5.334c0-2.872,2.337-5.209,5.209-5.209h21.333
	c2.872,0,5.208,2.337,5.208,5.209v21.332c0,2.872-2.336,5.209-5.208,5.209H5.334z"/>
<path fill="#9DACB4" d="M26.667,0.25c2.803,0,5.083,2.281,5.083,5.084v21.332c0,2.803-2.28,5.084-5.083,5.084H5.334
	c-2.804,0-5.084-2.281-5.084-5.084V5.334c0-2.803,2.28-5.084,5.084-5.084H26.667 M26.667,0H5.334C2.4,0,0,2.4,0,5.334v21.332
	C0,29.602,2.4,32,5.334,32h21.333C29.601,32,32,29.602,32,26.666V5.334C32,2.4,29.601,0,26.667,0L26.667,0z"/>
<linearGradient id="SVGID_2_" gradientUnits="userSpaceOnUse" x1="15.9995" y1="16" x2="15.9995" y2="32.0005">
	<stop  offset="0.0056" style="stop-color:#ED2C2A"/>
	<stop  offset="0.5" style="stop-color:#EF3E3A"/>
	<stop  offset="0.9944" style="stop-color:#C02427"/>
</linearGradient>
<path fill="url(#SVGID_2_)" d="M27,16H5c-2.75,0-5,2.25-5,5v5.666C0,29.602,2.4,32,5.334,32h21.333C29.601,32,32,29.602,32,26.666
	V21C32,18.25,29.75,16,27,16z"/>
<linearGradient id="SVGID_3_" gradientUnits="userSpaceOnUse" x1="15.9995" y1="0.1665" x2="15.9995" y2="31.6879">
	<stop  offset="0" style="stop-color:#DFE3E5"/>
	<stop  offset="1" style="stop-color:#BEC6CC"/>
</linearGradient>
<path fill="url(#SVGID_3_)" d="M26.667,0H5.334C2.4,0,0,2.4,0,5.334v21.332C0,29.602,2.4,32,5.334,32h21.333
	C29.601,32,32,29.602,32,26.666V5.334C32,2.4,29.601,0,26.667,0z M31,26.666C31,29.057,29.057,31,26.667,31H5.334
	C2.944,31,1,29.057,1,26.666V5.334C1,2.944,2.944,1,5.334,1h21.333C29.057,1,31,2.944,31,5.334V26.666z"/>
<linearGradient id="SVGID_4_" gradientUnits="userSpaceOnUse" x1="16.0005" y1="31.125" x2="16.0005" y2="14.1097">
	<stop  offset="0" style="stop-color:#FFFFFF"/>
	<stop  offset="1" style="stop-color:#000000"/>
</linearGradient>
<path fill="url(#SVGID_4_)" d="M26.667,1H5.334C2.944,1,1,2.944,1,5.334v21.332C1,29.057,2.944,31,5.334,31h21.333
	C29.057,31,31,29.057,31,26.666V5.334C31,2.944,29.057,1,26.667,1z M30,26.666C30,28.504,28.505,30,26.667,30H5.334
	C3.496,30,2,28.504,2,26.666V5.334C2,3.496,3.496,2,5.334,2h21.333C28.505,2,30,3.496,30,5.334V26.666z"/>
<linearGradient id="SVGID_5_" gradientUnits="userSpaceOnUse" x1="15.9995" y1="1.0278" x2="15.9995" y2="6.282">
	<stop  offset="0" style="stop-color:#FFFFFF"/>
	<stop  offset="1" style="stop-color:#000000"/>
</linearGradient>
<path fill="url(#SVGID_5_)" d="M26.667,1H5.334C2.944,1,1,2.944,1,5.334v1C1,3.944,2.944,2,5.334,2h21.333
	C29.057,2,31,3.944,31,6.334v-1C31,2.944,29.057,1,26.667,1z"/>
<linearGradient id="SVGID_6_" gradientUnits="userSpaceOnUse" x1="-138.751" y1="13.8726" x2="-138.751" y2="11.0388" gradientTransform="matrix(1 0 0 -1 148.7305 191.0391)">
	<stop  offset="0" style="stop-color:#FFFFFF"/>
	<stop  offset="1" style="stop-color:#000000"/>
</linearGradient>
<polygon fill="url(#SVGID_6_)" points="6.906,3.67 8.752,3.67 9.941,7.986 10.057,7.986 11.19,3.67 13.053,3.67 10.92,9.988 
	10.92,14.469 9.088,14.469 9.088,10.19 "/>
<linearGradient id="SVGID_7_" gradientUnits="userSpaceOnUse" x1="-133.1841" y1="13.8726" x2="-133.1841" y2="11.0388" gradientTransform="matrix(1 0 0 -1 148.7305 191.0391)">
	<stop  offset="0" style="stop-color:#FFFFFF"/>
	<stop  offset="1" style="stop-color:#000000"/>
</linearGradient>
<path fill="url(#SVGID_7_)" d="M13.185,8.324c0-0.618,0.219-1.109,0.657-1.475c0.438-0.365,1.027-0.549,1.767-0.549
	c0.674,0,1.226,0.193,1.657,0.579c0.428,0.385,0.643,0.882,0.643,1.489v4.115c0,0.682-0.211,1.215-0.631,1.604
	c-0.424,0.388-1.004,0.582-1.743,0.582c-0.712,0-1.282-0.201-1.709-0.601c-0.427-0.4-0.641-0.939-0.641-1.616V8.324z M14.859,12.604
	c0,0.219,0.059,0.387,0.174,0.507s0.281,0.18,0.496,0.18c0.221,0,0.396-0.062,0.525-0.183c0.131-0.123,0.195-0.291,0.195-0.504
	v-4.34c0-0.174-0.066-0.314-0.198-0.422c-0.133-0.107-0.307-0.16-0.522-0.16c-0.198,0-0.359,0.053-0.484,0.16
	c-0.123,0.107-0.186,0.248-0.186,0.422V12.604z"/>
<linearGradient id="SVGID_8_" gradientUnits="userSpaceOnUse" x1="-127.1802" y1="13.8726" x2="-127.1802" y2="11.0387" gradientTransform="matrix(1 0 0 -1 148.7305 191.0391)">
	<stop  offset="0" style="stop-color:#FFFFFF"/>
	<stop  offset="1" style="stop-color:#000000"/>
</linearGradient>
<path fill="url(#SVGID_8_)" d="M23.873,6.502v7.967h-1.629v-0.88c-0.297,0.323-0.609,0.572-0.936,0.741
	c-0.324,0.169-0.639,0.254-0.943,0.254c-0.379,0-0.66-0.119-0.852-0.356c-0.189-0.237-0.285-0.593-0.285-1.067V6.502h1.625v6.107
	c0,0.189,0.037,0.325,0.105,0.409c0.066,0.085,0.178,0.128,0.33,0.128c0.119,0,0.271-0.057,0.455-0.168
	c0.182-0.112,0.35-0.255,0.5-0.43V6.502H23.873z"/>
<linearGradient id="SVGID_9_" gradientUnits="userSpaceOnUse" x1="-138.7515" y1="188.0391" x2="-138.7515" y2="177.2402" gradientTransform="matrix(1 0 0 -1 148.731 191.0391)">
	<stop  offset="0" style="stop-color:#525252"/>
	<stop  offset="0.9944" style="stop-color:#373534"/>
</linearGradient>
<polygon fill="url(#SVGID_9_)" points="6.906,3 8.752,3 9.941,7.316 10.057,7.316 11.19,3 13.053,3 10.92,9.318 10.92,13.799 
	9.088,13.799 9.088,9.521 "/>
<linearGradient id="SVGID_10_" gradientUnits="userSpaceOnUse" x1="-133.1851" y1="185.4082" x2="-133.1851" y2="177.0391" gradientTransform="matrix(1 0 0 -1 148.731 191.0391)">
	<stop  offset="0" style="stop-color:#525252"/>
	<stop  offset="0.9944" style="stop-color:#373534"/>
</linearGradient>
<path fill="url(#SVGID_10_)" d="M13.185,7.654c0-0.618,0.219-1.109,0.657-1.475c0.438-0.365,1.027-0.549,1.767-0.549
	c0.674,0,1.226,0.193,1.657,0.579c0.428,0.385,0.643,0.882,0.643,1.489v4.115c0,0.682-0.211,1.215-0.631,1.604
	C16.854,13.806,16.273,14,15.534,14c-0.712,0-1.282-0.201-1.709-0.601c-0.427-0.4-0.641-0.939-0.641-1.616V7.654z M14.859,11.934
	c0,0.219,0.059,0.387,0.174,0.507s0.281,0.18,0.496,0.18c0.221,0,0.396-0.062,0.525-0.183c0.131-0.123,0.195-0.291,0.195-0.504
	v-4.34c0-0.174-0.066-0.314-0.198-0.422c-0.133-0.107-0.307-0.16-0.522-0.16c-0.198,0-0.359,0.053-0.484,0.16
	c-0.123,0.107-0.186,0.248-0.186,0.422V11.934z"/>
<linearGradient id="SVGID_11_" gradientUnits="userSpaceOnUse" x1="-127.1807" y1="185.207" x2="-127.1807" y2="177.125" gradientTransform="matrix(1 0 0 -1 148.731 191.0391)">
	<stop  offset="0" style="stop-color:#525252"/>
	<stop  offset="0.9944" style="stop-color:#373534"/>
</linearGradient>
<path fill="url(#SVGID_11_)" d="M23.873,5.832v7.967h-1.629v-0.88c-0.297,0.323-0.609,0.572-0.936,0.741
	c-0.324,0.169-0.639,0.254-0.943,0.254c-0.379,0-0.66-0.119-0.852-0.356c-0.189-0.237-0.285-0.593-0.285-1.067V5.832h1.625v6.107
	c0,0.189,0.037,0.325,0.105,0.409c0.066,0.085,0.178,0.128,0.33,0.128c0.119,0,0.271-0.057,0.455-0.168
	c0.182-0.112,0.35-0.255,0.5-0.43V5.832H23.873z"/>
<linearGradient id="SVGID_12_" gradientUnits="userSpaceOnUse" x1="8.0234" y1="18.9355" x2="8.0234" y2="29.3115">
	<stop  offset="0.0056" style="stop-color:#F59176"/>
	<stop  offset="0.9944" style="stop-color:#AB1F21"/>
</linearGradient>
<polygon fill="url(#SVGID_12_)" points="11.023,17.653 5.023,17.653 5.023,20.077 6.709,20.077 6.709,28.456 9.338,28.456 
	9.338,20.077 11.023,20.077 "/>
<linearGradient id="SVGID_13_" gradientUnits="userSpaceOnUse" x1="13.2227" y1="18.9355" x2="13.2227" y2="29.3115">
	<stop  offset="0.0056" style="stop-color:#F59176"/>
	<stop  offset="0.9944" style="stop-color:#AB1F21"/>
</linearGradient>
<path fill="url(#SVGID_13_)" d="M13.342,26.016c-0.068,0.063-0.141,0.119-0.217,0.166c-0.008,0.004-0.014,0.009-0.021,0.013v-5.972
	h-2.445v6.548c0,0.547,0.117,0.964,0.361,1.279c0.186,0.233,0.535,0.512,1.148,0.512c0.357,0,0.719-0.098,1.072-0.288
	c0.034-0.019,0.068-0.037,0.102-0.056v0.238h2.445v-8.233h-2.445V26.016z"/>
<linearGradient id="SVGID_14_" gradientUnits="userSpaceOnUse" x1="20.959" y1="18.9355" x2="20.959" y2="29.3115">
	<stop  offset="0.0056" style="stop-color:#F59176"/>
	<stop  offset="0.9944" style="stop-color:#AB1F21"/>
</linearGradient>
<path fill="url(#SVGID_14_)" d="M26.044,25.012v-2.344c0-0.817-0.227-1.465-0.674-1.924c-0.451-0.465-1.086-0.701-1.885-0.701
	c-0.776,0-1.426,0.246-1.93,0.732c-0.278,0.269-0.474,0.583-0.601,0.935c-0.074-0.364-0.201-0.678-0.393-0.922
	c-0.233-0.298-0.673-0.652-1.441-0.652c-0.266,0-0.529,0.058-0.786,0.174v-2.656h-2.461v10.803h2.461v-0.07
	c0.26,0.107,0.554,0.162,0.874,0.162c0.727,0,1.145-0.32,1.367-0.589c0.199-0.24,0.327-0.548,0.396-0.906
	c0.116,0.322,0.285,0.605,0.511,0.846c0.467,0.501,1.104,0.755,1.895,0.755c0.859,0,1.526-0.24,1.98-0.711
	c0.456-0.469,0.687-1.15,0.687-2.025v-0.871h-2.487v0.83c0,0.333-0.033,0.476-0.027,0.5c-0.022,0.006-0.075,0.016-0.188,0.023
	c-0.003-0.005-0.062-0.114-0.062-0.523v-0.864H26.044z M23.279,22.656c0-0.246,0.039-0.331,0.033-0.333
	c0.008-0.003,0.04-0.014,0.111-0.014l0.085,0.003c0,0.001,0.048,0.082,0.048,0.344v0.23h-0.277V22.656z M18.542,26.263
	c0,0.112-0.014,0.168-0.017,0.168c-0.001,0-0.001-0.006,0.001-0.017c-0.048,0-0.092-0.01-0.142-0.033
	c-0.011-0.005-0.05-0.028-0.05-0.028v-4.04c0.006-0.003,0.011-0.006,0.017-0.008c0.028-0.015,0.056-0.021,0.088-0.021l0.062,0.003
	c0.011,0.014,0.04,0.084,0.04,0.241V26.263z"/>
<path fill="#FFFFFF" d="M10.523,18.153h-5v1.424h1.686v8.379h1.629v-8.379h1.686V18.153z"/>
<path fill="#FFFFFF" d="M13.842,26.217c-0.137,0.156-0.285,0.286-0.449,0.387c-0.162,0.103-0.298,0.153-0.402,0.153
	c-0.136,0-0.234-0.038-0.297-0.116c-0.059-0.075-0.09-0.199-0.09-0.37v-5.548h-1.445v6.048c0,0.432,0.086,0.752,0.254,0.969
	c0.171,0.216,0.42,0.322,0.756,0.322c0.271,0,0.551-0.075,0.839-0.23c0.29-0.153,0.566-0.375,0.835-0.67v0.795h1.445v-7.233h-1.445
	V26.217z"/>
<path fill="#FFFFFF" d="M20.169,21.097c-0.24-0.307-0.59-0.461-1.048-0.461c-0.225,0-0.446,0.057-0.667,0.171
	c-0.217,0.113-0.424,0.284-0.619,0.502v-3.155h-1.461v9.803h1.461v-0.555c0.188,0.222,0.396,0.385,0.618,0.489
	c0.22,0.106,0.472,0.157,0.756,0.157c0.428,0,0.757-0.136,0.982-0.408c0.227-0.273,0.34-0.667,0.34-1.179v-4.014
	C20.531,21.855,20.411,21.405,20.169,21.097z M19.042,26.263c0,0.232-0.043,0.396-0.125,0.498c-0.084,0.103-0.213,0.153-0.391,0.153
	c-0.122,0-0.237-0.026-0.349-0.078c-0.111-0.051-0.227-0.138-0.343-0.255v-4.506c0.099-0.101,0.197-0.175,0.298-0.221
	c0.101-0.049,0.203-0.07,0.307-0.07c0.194,0,0.345,0.062,0.45,0.188c0.103,0.126,0.152,0.312,0.152,0.557V26.263z"/>
<path fill="#FFFFFF" d="M25.544,24.512v-1.844c0-0.685-0.177-1.21-0.532-1.575c-0.355-0.366-0.864-0.55-1.526-0.55
	c-0.647,0-1.173,0.197-1.582,0.592c-0.409,0.396-0.615,0.908-0.615,1.533v3.249c0,0.696,0.188,1.244,0.56,1.641
	c0.371,0.397,0.882,0.596,1.529,0.596c0.721,0,1.262-0.186,1.622-0.56c0.365-0.376,0.545-0.936,0.545-1.677v-0.371h-1.487v0.33
	c0,0.425-0.05,0.699-0.144,0.823c-0.096,0.126-0.263,0.188-0.503,0.188c-0.23,0-0.394-0.072-0.49-0.22
	c-0.095-0.147-0.141-0.411-0.141-0.792v-1.364H25.544z M22.779,22.656c0-0.302,0.048-0.521,0.149-0.648
	c0.101-0.134,0.265-0.198,0.495-0.198c0.22,0,0.383,0.064,0.48,0.198c0.101,0.128,0.152,0.347,0.152,0.648v0.73h-1.277V22.656z"/>
</svg>
